<svg xmlns="http://www.w3.org/2000/svg" width="186.072" height="52.855" viewBox="0 0 186.072 52.855">
  <g id="logo" transform="translate(-197.126 -51)">
    <g id="Group_223" data-name="Group 223" transform="translate(301.966 -59.26)">
      <g id="Group_195" data-name="Group 195" transform="translate(-84.966 111.72)">
        <path id="Path_91" data-name="Path 91" d="M-69.6,108.921v1.1h-7.082v19.556h-.97V110.019h-7.082v-1.1Z" transform="translate(84.888 -108.766)" fill="#fff"/>
        <path id="Path_92" data-name="Path 92" d="M-76.605,129.652h-1.279V110.1h-7.082v-1.408h15.443V110.1h-7.082Zm-.969-.309h.659V109.786h7.082V109H-84.657v.789h7.082Z" transform="translate(84.966 -108.688)" fill="#fff"/>
      </g>
      <g id="Group_196" data-name="Group 196" transform="translate(-64.69 111.72)">
        <path id="Path_93" data-name="Path 93" d="M-54.263,129.575V108.921h1v9.763h12.441v-9.763h1v20.654h-1v-9.793H-53.267v9.793Z" transform="translate(54.418 -108.766)" fill="#fff"/>
        <path id="Path_94" data-name="Path 94" d="M-39.753,129.652h-1.306V119.86H-53.19v9.793H-54.5V108.688h1.306v9.763h12.131v-9.763h1.306Zm-1-.309h.687V109h-.687v9.763H-53.5V109h-.686v20.346h.686v-9.793h12.751Z" transform="translate(54.496 -108.688)" fill="#fff"/>
      </g>
      <g id="Group_197" data-name="Group 197" transform="translate(-44.009 111.72)">
        <path id="Path_95" data-name="Path 95" d="M-23.186,108.921H-9.991v1.1h-12.2v8.369h10.61v1.1H-22.19v8.992h12.2v1.1H-23.186Z" transform="translate(23.341 -108.766)" fill="#fff"/>
        <path id="Path_96" data-name="Path 96" d="M-9.914,129.652h-13.5V108.688h13.5V110.1h-12.2v8.059H-11.5v1.408h-10.61v8.681h12.2Zm-13.195-.309h12.885v-.789h-12.2v-9.3h10.61v-.789h-10.61v-8.678h12.2V109H-23.109Z" transform="translate(23.419 -108.688)" fill="#fff"/>
      </g>
      <g id="Group_198" data-name="Group 198" transform="translate(-35.257 140.26)">
        <path id="Path_97" data-name="Path 97" d="M-5.235,151.91h1.051l7.7,20.654H2.439l-2.531-6.826H-9.328l-2.558,6.826h-1.05Zm-3.689,12.761H-.5l-4.228-11.337Z" transform="translate(13.16 -151.755)" fill="#fff"/>
        <path id="Path_98" data-name="Path 98" d="M3.627,172.641H2.219l-2.531-6.826H-9.333l-2.558,6.826h-1.381l7.817-20.964H-4.19Zm-1.192-.31h.747L-4.4,151.986H-5.24l-7.585,20.345h.719l2.559-6.826H-.1Zm-2.82-7.583H-9.259l4.423-11.936Zm-8.429-.31H-.831l-4-10.737Z" transform="translate(13.272 -151.677)" fill="#fff"/>
      </g>
      <g id="Group_199" data-name="Group 199" transform="translate(-13.27 140.26)">
        <path id="Path_99" data-name="Path 99" d="M21,172.564H20V151.91h7.54a7.058,7.058,0,0,1,3.488.89,6.608,6.608,0,0,1,2.545,2.522,7.4,7.4,0,0,1,.942,3.769,7.638,7.638,0,0,1-.956,3.769,6.666,6.666,0,0,1-2.6,2.641,6.891,6.891,0,0,1-3.42.8H21Zm0-7.359h6.543a5.94,5.94,0,0,0,2.827-.594,5.617,5.617,0,0,0,2.289-2.226,6.67,6.67,0,0,0,0-6.559,5.585,5.585,0,0,0-2.316-2.226,5.882,5.882,0,0,0-2.8-.593H21Z" transform="translate(-19.847 -151.755)" fill="#fff"/>
        <path id="Path_100" data-name="Path 100" d="M21.075,172.641H19.769V151.677h7.695a7.245,7.245,0,0,1,3.562.91,6.793,6.793,0,0,1,2.6,2.581,7.593,7.593,0,0,1,.963,3.846,7.822,7.822,0,0,1-.976,3.844,6.851,6.851,0,0,1-2.658,2.7,7.079,7.079,0,0,1-3.5.821H21.075Zm-1-.31h.687V166.07h6.7a6.771,6.771,0,0,0,3.345-.781,6.546,6.546,0,0,0,2.539-2.582,7.514,7.514,0,0,0,.936-3.693,7.282,7.282,0,0,0-.922-3.692,6.473,6.473,0,0,0-2.486-2.464,6.94,6.94,0,0,0-3.412-.871H20.079Zm7.385-7.049h-6.7V152.775h6.7a6.056,6.056,0,0,1,2.874.612,5.755,5.755,0,0,1,2.376,2.285,6.823,6.823,0,0,1,0,6.714,5.8,5.8,0,0,1-2.351,2.285A6.117,6.117,0,0,1,27.464,165.282Zm-6.388-.31h6.388a5.822,5.822,0,0,0,2.754-.575,5.5,5.5,0,0,0,2.229-2.167,6.515,6.515,0,0,0,0-6.4,5.453,5.453,0,0,0-2.252-2.165,5.754,5.754,0,0,0-2.73-.576H21.075Z" transform="translate(-19.769 -151.677)" fill="#fff"/>
      </g>
      <g id="Group_200" data-name="Group 200" transform="translate(6.657 140.26)">
        <path id="Path_101" data-name="Path 101" d="M50.943,172.564h-1V151.91h7.54a7.055,7.055,0,0,1,3.487.89,6.6,6.6,0,0,1,2.545,2.522,7.4,7.4,0,0,1,.942,3.769,7.638,7.638,0,0,1-.956,3.769,6.666,6.666,0,0,1-2.6,2.641,6.888,6.888,0,0,1-3.42.8H50.943Zm0-7.359h6.543a5.937,5.937,0,0,0,2.827-.594,5.617,5.617,0,0,0,2.289-2.226,6.67,6.67,0,0,0,0-6.559,5.581,5.581,0,0,0-2.316-2.226,5.881,5.881,0,0,0-2.8-.593H50.943Z" transform="translate(-49.792 -151.755)" fill="#fff"/>
        <path id="Path_102" data-name="Path 102" d="M51.02,172.641H49.714V151.677h7.695a7.248,7.248,0,0,1,3.562.91,6.791,6.791,0,0,1,2.6,2.581,7.593,7.593,0,0,1,.963,3.846,7.822,7.822,0,0,1-.976,3.844,6.843,6.843,0,0,1-2.658,2.7,7.076,7.076,0,0,1-3.5.821H51.02Zm-1-.31h.687V166.07h6.7a6.766,6.766,0,0,0,3.344-.781,6.541,6.541,0,0,0,2.539-2.582,7.512,7.512,0,0,0,.937-3.693,7.282,7.282,0,0,0-.922-3.692,6.485,6.485,0,0,0-2.485-2.464,6.943,6.943,0,0,0-3.412-.871H50.023Zm7.385-7.049h-6.7V152.775h6.7a6.055,6.055,0,0,1,2.873.612,5.751,5.751,0,0,1,2.376,2.285,6.823,6.823,0,0,1,0,6.714,5.789,5.789,0,0,1-2.351,2.285A6.114,6.114,0,0,1,57.409,165.282Zm-6.389-.31h6.389a5.819,5.819,0,0,0,2.754-.575,5.5,5.5,0,0,0,2.229-2.167,6.518,6.518,0,0,0,0-6.4,5.451,5.451,0,0,0-2.253-2.165,5.749,5.749,0,0,0-2.73-.576H51.02Z" transform="translate(-49.714 -151.677)" fill="#fff"/>
      </g>
      <g id="Group_201" data-name="Group 201" transform="translate(26.152 140.26)">
        <path id="Path_103" data-name="Path 103" d="M92.5,155.056a7.188,7.188,0,0,1,.929,3.621,7.04,7.04,0,0,1-1.279,4.139,6.023,6.023,0,0,1-3.272,2.419l4.767,7.33H92.464l-4.6-7.122-.862.03H80.239v7.092h-1V151.91h7.136a10.948,10.948,0,0,1,2.033.163,5.857,5.857,0,0,1,1.549.519A6.089,6.089,0,0,1,92.5,155.056Zm-5.238,9.318a4.639,4.639,0,0,0,2.585-.772,5.567,5.567,0,0,0,1.885-2.077,5.936,5.936,0,0,0,.7-2.849,6.032,6.032,0,0,0-.821-3.116,5.108,5.108,0,0,0-2.276-2.078,7.4,7.4,0,0,0-2.962-.474H80.239v11.366Z" transform="translate(-79.088 -151.755)" fill="#fff"/>
        <path id="Path_104" data-name="Path 104" d="M93.857,172.641H92.3l-4.6-7.119-.774.027H80.316v7.092H79.01V151.677H86.3a11.2,11.2,0,0,1,2.062.166,6.033,6.033,0,0,1,1.59.534,6.267,6.267,0,0,1,2.609,2.524h0a7.371,7.371,0,0,1,.95,3.7,7.222,7.222,0,0,1-1.307,4.229,6.225,6.225,0,0,1-3.158,2.416Zm-1.386-.31h.815l-4.723-7.264.2-.059a5.9,5.9,0,0,0,3.189-2.359A6.916,6.916,0,0,0,93.2,158.6a7.07,7.07,0,0,0-.908-3.544h0a5.963,5.963,0,0,0-2.481-2.4,5.755,5.755,0,0,0-1.507-.505,10.854,10.854,0,0,0-2-.16H79.319v20.345h.687v-7.092H86.92l.944-.033Zm-5.281-7.88H80.007V152.775H86.3a7.574,7.574,0,0,1,3.026.488,5.281,5.281,0,0,1,2.345,2.14,6.2,6.2,0,0,1,.843,3.194,6.12,6.12,0,0,1-.719,2.923,5.75,5.75,0,0,1-1.937,2.133A4.811,4.811,0,0,1,87.19,164.451Zm-6.873-.31H87.19a4.506,4.506,0,0,0,2.5-.747,5.442,5.442,0,0,0,1.833-2.02A5.816,5.816,0,0,0,92.2,158.6a5.9,5.9,0,0,0-.8-3.037,4.979,4.979,0,0,0-2.207-2.016,7.293,7.293,0,0,0-2.9-.46H80.316Z" transform="translate(-79.01 -151.677)" fill="#fff"/>
      </g>
      <g id="Group_202" data-name="Group 202" transform="translate(46.671 140.26)">
        <path id="Path_105" data-name="Path 105" d="M122.221,151.91v1.1h-5.6v18.458h5.6v1.1H110.077v-1.1h5.574V153.008h-5.574v-1.1Z" transform="translate(-109.923 -151.755)" fill="#fff"/>
        <path id="Path_106" data-name="Path 106" d="M122.3,172.641H109.845v-1.408h5.574V153.085h-5.574v-1.408H122.3v1.408h-5.6v18.148h5.6Zm-12.144-.31h11.834v-.788h-5.6V152.775h5.6v-.789H110.154v.789h5.574v18.768h-5.574Z" transform="translate(-109.845 -151.677)" fill="#fff"/>
      </g>
      <g id="Group_203" data-name="Group 203" transform="translate(66.866 140.26)">
        <path id="Path_107" data-name="Path 107" d="M140.426,172.564V151.91h1v19.556h13.06v1.1Z" transform="translate(-140.271 -151.755)" fill="#fff"/>
        <path id="Path_108" data-name="Path 108" d="M154.559,172.641H140.193V151.677H141.5v19.556h13.06Zm-14.056-.31h13.746v-.788H141.19V151.986H140.5Z" transform="translate(-140.193 -151.677)" fill="#fff"/>
      </g>
      <g id="Group_204" data-name="Group 204" transform="translate(-84.657 140.26)">
        <path id="Path_109" data-name="Path 109" d="M-72.662,151.249a8.131,8.131,0,0,1,2.814,3.1,8.991,8.991,0,0,1,1.037,4.274v4.511a8.99,8.99,0,0,1-1.037,4.273,8.132,8.132,0,0,1-2.814,3.1,7.035,7.035,0,0,1-3.878,1.143,7.032,7.032,0,0,1-3.878-1.143,8.128,8.128,0,0,1-2.814-3.1,8.99,8.99,0,0,1-1.037-4.273v-4.511a8.991,8.991,0,0,1,1.037-4.274,8.127,8.127,0,0,1,2.814-3.1,7.032,7.032,0,0,1,3.878-1.143A7.035,7.035,0,0,1-72.662,151.249Zm-9.708,15.609a7.049,7.049,0,0,0,2.45,2.7,6.125,6.125,0,0,0,3.38.994,6.128,6.128,0,0,0,3.379-.994,7.054,7.054,0,0,0,2.45-2.7,7.842,7.842,0,0,0,.9-3.724v-4.511a7.845,7.845,0,0,0-.9-3.725,7.068,7.068,0,0,0-2.45-2.7,6.133,6.133,0,0,0-3.379-.994,6.131,6.131,0,0,0-3.38.994,7.063,7.063,0,0,0-2.45,2.7,7.845,7.845,0,0,0-.9,3.725v4.511A7.842,7.842,0,0,0-82.369,166.858Z" transform="translate(84.423 -149.951)" fill="#fff"/>
        <path id="Path_110" data-name="Path 110" d="M-76.617,171.728a7.213,7.213,0,0,1-3.961-1.167,8.306,8.306,0,0,1-2.867-3.159,9.185,9.185,0,0,1-1.055-4.345v-4.511a9.185,9.185,0,0,1,1.055-4.345,8.322,8.322,0,0,1,2.867-3.16,7.216,7.216,0,0,1,3.961-1.167,7.215,7.215,0,0,1,3.961,1.167h0a8.318,8.318,0,0,1,2.867,3.16,9.185,9.185,0,0,1,1.055,4.345v4.511a9.194,9.194,0,0,1-1.054,4.345,8.324,8.324,0,0,1-2.868,3.159A7.215,7.215,0,0,1-76.617,171.728Zm0-21.545a6.911,6.911,0,0,0-3.794,1.118,8.014,8.014,0,0,0-2.761,3.043,8.883,8.883,0,0,0-1.018,4.2v4.511a8.878,8.878,0,0,0,1.018,4.2,8.011,8.011,0,0,0,2.761,3.044,6.917,6.917,0,0,0,3.794,1.118,6.916,6.916,0,0,0,3.794-1.118,8.012,8.012,0,0,0,2.761-3.044,8.886,8.886,0,0,0,1.018-4.2v-4.511a8.891,8.891,0,0,0-1.018-4.2,8.025,8.025,0,0,0-2.761-3.043h0A6.914,6.914,0,0,0-76.617,150.183Zm0,20.447a6.312,6.312,0,0,1-3.464-1.019,7.243,7.243,0,0,1-2.5-2.758,8.029,8.029,0,0,1-.92-3.8v-4.511a8.037,8.037,0,0,1,.92-3.8,7.252,7.252,0,0,1,2.5-2.758,6.315,6.315,0,0,1,3.464-1.018,6.318,6.318,0,0,1,3.463,1.018,7.252,7.252,0,0,1,2.5,2.758,8.038,8.038,0,0,1,.92,3.8v4.511a8.031,8.031,0,0,1-.92,3.8,7.243,7.243,0,0,1-2.5,2.758A6.315,6.315,0,0,1-76.617,170.63Zm0-19.349a6,6,0,0,0-3.3.97,6.935,6.935,0,0,0-2.4,2.643,7.722,7.722,0,0,0-.884,3.652v4.511a7.72,7.72,0,0,0,.884,3.652h0a6.935,6.935,0,0,0,2.4,2.643,6.011,6.011,0,0,0,3.3.97,6.012,6.012,0,0,0,3.3-.97,6.942,6.942,0,0,0,2.4-2.643,7.735,7.735,0,0,0,.884-3.652v-4.511a7.737,7.737,0,0,0-.884-3.652,6.952,6.952,0,0,0-2.4-2.643A6.006,6.006,0,0,0-76.617,151.281Z" transform="translate(84.501 -149.873)" fill="#fff"/>
      </g>
      <g id="Group_205" data-name="Group 205" transform="translate(-63.222 140.705)">
        <path id="Path_111" data-name="Path 111" d="M-52.058,150.775h13.976v1.1H-51.061v8.666h10.5v1.1h-10.5v9.793h-1Z" transform="translate(52.213 -150.62)" fill="#fff"/>
        <path id="Path_112" data-name="Path 112" d="M-50.985,171.506h-1.306V150.542h14.286v1.408h-12.98v8.355h10.5v1.408h-10.5Zm-1-.309h.687V161.4h10.5v-.789h-10.5v-8.974h12.979v-.789H-51.981Z" transform="translate(52.291 -150.542)" fill="#fff"/>
      </g>
      <g id="Group_206" data-name="Group 206" transform="translate(-16.262 111.734)">
        <path id="Path_113" data-name="Path 113" d="M18.512,129.6V108.943h1v9.763H31.949v-9.763h1V129.6h-1V119.8H19.508V129.6Z" transform="translate(-18.357 -108.788)" fill="#fff"/>
        <path id="Path_114" data-name="Path 114" d="M33.022,129.674H31.716v-9.793H19.585v9.793H18.279V108.71h1.306v9.764H31.716V108.71h1.306Zm-1-.309h.687V109.02h-.687v9.763H19.276V109.02h-.687v20.345h.687v-9.793h12.75Z" transform="translate(-18.279 -108.71)" fill="#fff"/>
      </g>
      <g id="Group_207" data-name="Group 207" transform="translate(3.154 111.289)">
        <path id="Path_115" data-name="Path 115" d="M59.293,109.417a8.132,8.132,0,0,1,2.814,3.1,9,9,0,0,1,1.037,4.274V121.3a9,9,0,0,1-1.037,4.273,8.127,8.127,0,0,1-2.814,3.1,7.151,7.151,0,0,1-7.755,0,8.127,8.127,0,0,1-2.814-3.1,8.989,8.989,0,0,1-1.036-4.273v-4.511a8.99,8.99,0,0,1,1.036-4.274,8.132,8.132,0,0,1,2.814-3.1,7.151,7.151,0,0,1,7.755,0Zm-9.708,15.609a7.055,7.055,0,0,0,2.451,2.7,6.241,6.241,0,0,0,6.759,0,7.064,7.064,0,0,0,2.45-2.7,7.85,7.85,0,0,0,.9-3.724v-4.511a7.853,7.853,0,0,0-.9-3.725,7.074,7.074,0,0,0-2.45-2.7,6.241,6.241,0,0,0-6.759,0,7.065,7.065,0,0,0-2.451,2.7,7.844,7.844,0,0,0-.9,3.725V121.3A7.842,7.842,0,0,0,49.586,125.026Z" transform="translate(-47.533 -108.119)" fill="#fff"/>
        <path id="Path_116" data-name="Path 116" d="M55.338,129.9a7.216,7.216,0,0,1-3.961-1.167,8.314,8.314,0,0,1-2.867-3.159,9.181,9.181,0,0,1-1.055-4.345v-4.511a9.181,9.181,0,0,1,1.055-4.346,8.313,8.313,0,0,1,2.867-3.159,7.306,7.306,0,0,1,7.923,0h0a8.327,8.327,0,0,1,2.867,3.159,9.2,9.2,0,0,1,1.055,4.346v4.511a9.192,9.192,0,0,1-1.055,4.345,8.322,8.322,0,0,1-2.867,3.159A7.216,7.216,0,0,1,55.338,129.9Zm0-21.545a6.911,6.911,0,0,0-3.794,1.118,8.013,8.013,0,0,0-2.761,3.043,8.876,8.876,0,0,0-1.019,4.2v4.511a8.873,8.873,0,0,0,1.019,4.2,8.011,8.011,0,0,0,2.761,3.044,7,7,0,0,0,7.587,0,8.012,8.012,0,0,0,2.761-3.044,8.879,8.879,0,0,0,1.019-4.2v-4.511a8.881,8.881,0,0,0-1.019-4.2,8.014,8.014,0,0,0-2.761-3.043A6.911,6.911,0,0,0,55.338,108.351Zm0,20.447a6.31,6.31,0,0,1-3.463-1.019,7.237,7.237,0,0,1-2.5-2.758,8.026,8.026,0,0,1-.92-3.8v-4.511a8.03,8.03,0,0,1,.92-3.8,7.247,7.247,0,0,1,2.5-2.758,6.395,6.395,0,0,1,6.926,0,7.253,7.253,0,0,1,2.5,2.758,8.043,8.043,0,0,1,.92,3.8v4.511a8.039,8.039,0,0,1-.92,3.8,7.244,7.244,0,0,1-2.5,2.758A6.311,6.311,0,0,1,55.338,128.8Zm0-19.349a6,6,0,0,0-3.3.97,6.931,6.931,0,0,0-2.4,2.643,7.73,7.73,0,0,0-.884,3.652v4.511a7.725,7.725,0,0,0,.884,3.651h0a6.935,6.935,0,0,0,2.4,2.642,6.086,6.086,0,0,0,6.591,0,6.933,6.933,0,0,0,2.4-2.642,7.73,7.73,0,0,0,.884-3.652v-4.511a7.728,7.728,0,0,0-.884-3.652,6.945,6.945,0,0,0-2.4-2.643A6.007,6.007,0,0,0,55.338,109.449Z" transform="translate(-47.455 -108.041)" fill="#fff"/>
      </g>
      <g id="Group_208" data-name="Group 208" transform="translate(23.242 111.734)">
        <path id="Path_117" data-name="Path 117" d="M77.875,108.943h1V121.7a7.561,7.561,0,0,0,.888,3.621,7.048,7.048,0,0,0,2.4,2.641,6,6,0,0,0,6.57,0,7.054,7.054,0,0,0,2.4-2.641,7.561,7.561,0,0,0,.888-3.621V108.943h1V121.7a8.7,8.7,0,0,1-1.023,4.17,8.109,8.109,0,0,1-2.76,3.042,6.913,6.913,0,0,1-7.567,0,8.111,8.111,0,0,1-2.76-3.042,8.7,8.7,0,0,1-1.023-4.17Z" transform="translate(-77.72 -108.788)" fill="#fff"/>
        <path id="Path_118" data-name="Path 118" d="M85.363,130.12a7,7,0,0,1-3.868-1.153,8.3,8.3,0,0,1-2.812-3.1,8.888,8.888,0,0,1-1.041-4.242V108.71h1.306v12.916a7.439,7.439,0,0,0,.87,3.548,6.919,6.919,0,0,0,2.344,2.585,5.849,5.849,0,0,0,6.4,0,6.927,6.927,0,0,0,2.344-2.585,7.439,7.439,0,0,0,.87-3.548V108.71h1.306v12.916a8.9,8.9,0,0,1-1.041,4.242,8.293,8.293,0,0,1-2.813,3.1A7,7,0,0,1,85.363,130.12Zm-7.412-21.1v12.606a8.589,8.589,0,0,0,1.005,4.1,7.989,7.989,0,0,0,2.708,2.985,6.755,6.755,0,0,0,7.4,0,8,8,0,0,0,2.708-2.985,8.6,8.6,0,0,0,1.005-4.1V109.02h-.687v12.606a7.752,7.752,0,0,1-.907,3.694,7.242,7.242,0,0,1-2.449,2.7,6.155,6.155,0,0,1-6.739,0,7.231,7.231,0,0,1-2.449-2.7,7.752,7.752,0,0,1-.907-3.694V109.02Z" transform="translate(-77.642 -108.71)" fill="#fff"/>
      </g>
      <g id="Group_209" data-name="Group 209" transform="translate(43.626 111.26)">
        <path id="Path_119" data-name="Path 119" d="M112.29,118.364a5.512,5.512,0,0,1-2.263-1.662,4.285,4.285,0,0,1-.821-2.715,5.564,5.564,0,0,1,.821-3.027,5.418,5.418,0,0,1,2.316-2.018,7.959,7.959,0,0,1,3.46-.711,7,7,0,0,1,3.46.875,6.472,6.472,0,0,1,2.491,2.448,7.006,7.006,0,0,1,.916,3.591h-1a6.01,6.01,0,0,0-.781-3.086A5.4,5.4,0,0,0,118.766,110a6.188,6.188,0,0,0-2.989-.727,7.282,7.282,0,0,0-2.72.5,4.757,4.757,0,0,0-2.06,1.544,4.172,4.172,0,0,0-.794,2.611,3.284,3.284,0,0,0,.754,2.271,4.78,4.78,0,0,0,1.966,1.291,29.817,29.817,0,0,0,3.392.95,28.1,28.1,0,0,1,3.434.965,4.394,4.394,0,0,1,2.921,4.525,5.506,5.506,0,0,1-.929,3.25,5.642,5.642,0,0,1-2.463,1.973,8.446,8.446,0,0,1-3.339.653,8.123,8.123,0,0,1-3.931-.92,6.281,6.281,0,0,1-2.6-2.6,7.982,7.982,0,0,1-.9-3.844h1a6.9,6.9,0,0,0,.767,3.324,5.358,5.358,0,0,0,2.221,2.211,7.15,7.15,0,0,0,3.447.786,6.357,6.357,0,0,0,4.106-1.306,4.317,4.317,0,0,0,1.629-3.562,3.59,3.59,0,0,0-.7-2.374,3.973,3.973,0,0,0-1.764-1.2,31.011,31.011,0,0,0-3.191-.846A21.9,21.9,0,0,1,112.29,118.364Z" transform="translate(-108.352 -108.075)" fill="#fff"/>
        <path id="Path_120" data-name="Path 120" d="M115.861,129.881a8.312,8.312,0,0,1-4.005-.938,6.467,6.467,0,0,1-2.661-2.66,8.17,8.17,0,0,1-.92-3.917v-.155h1.306v.155a6.78,6.78,0,0,0,.749,3.251,5.23,5.23,0,0,0,2.159,2.148,7.029,7.029,0,0,0,3.373.767,6.235,6.235,0,0,0,4.009-1.271,4.189,4.189,0,0,0,1.571-3.441,3.456,3.456,0,0,0-.663-2.274,3.838,3.838,0,0,0-1.7-1.155,30.873,30.873,0,0,0-3.173-.841,22.131,22.131,0,0,1-3.756-1.121,5.682,5.682,0,0,1-2.324-1.71,4.451,4.451,0,0,1-.854-2.811,5.74,5.74,0,0,1,.845-3.109,5.587,5.587,0,0,1,2.38-2.076,8.148,8.148,0,0,1,3.526-.727,7.184,7.184,0,0,1,3.536.9,6.651,6.651,0,0,1,2.549,2.505,7.192,7.192,0,0,1,.937,3.669v.155h-1.306v-.155a5.881,5.881,0,0,0-.759-3.008,5.264,5.264,0,0,0-2.068-2,6.062,6.062,0,0,0-2.915-.709,7.155,7.155,0,0,0-2.662.493,4.633,4.633,0,0,0-1.994,1.494,4.043,4.043,0,0,0-.763,2.517,3.152,3.152,0,0,0,.715,2.167,4.653,4.653,0,0,0,1.9,1.249,29.928,29.928,0,0,0,3.374.944,28.374,28.374,0,0,1,3.453.971,4.546,4.546,0,0,1,3.022,4.67,5.685,5.685,0,0,1-.957,3.339,5.819,5.819,0,0,1-2.531,2.026A8.624,8.624,0,0,1,115.861,129.881Zm-7.276-7.36a7.805,7.805,0,0,0,.882,3.615A6.163,6.163,0,0,0,112,128.671a8.011,8.011,0,0,0,3.858.9,8.321,8.321,0,0,0,3.278-.641,5.518,5.518,0,0,0,2.4-1.92,5.382,5.382,0,0,0,.9-3.161,4.241,4.241,0,0,0-2.822-4.38,27.956,27.956,0,0,0-3.414-.959,30.246,30.246,0,0,1-3.412-.955,4.96,4.96,0,0,1-2.028-1.334,3.449,3.449,0,0,1-.793-2.374,4.344,4.344,0,0,1,.826-2.705,4.927,4.927,0,0,1,2.125-1.593,7.462,7.462,0,0,1,2.777-.516,6.368,6.368,0,0,1,3.062.746,5.565,5.565,0,0,1,2.187,2.121,6.128,6.128,0,0,1,.8,3.009h.687a6.841,6.841,0,0,0-.894-3.358,6.342,6.342,0,0,0-2.432-2.39,6.879,6.879,0,0,0-3.385-.856,7.843,7.843,0,0,0-3.393.7,5.279,5.279,0,0,0-2.251,1.96,5.432,5.432,0,0,0-.8,2.944,4.157,4.157,0,0,0,.789,2.621,5.378,5.378,0,0,0,2.2,1.614h0a21.754,21.754,0,0,0,3.7,1.1,31.474,31.474,0,0,1,3.209.851,4.149,4.149,0,0,1,1.831,1.248,3.749,3.749,0,0,1,.737,2.473,4.484,4.484,0,0,1-1.688,3.683,6.536,6.536,0,0,1-4.2,1.34,7.337,7.337,0,0,1-3.521-.8,5.538,5.538,0,0,1-2.284-2.274,7.017,7.017,0,0,1-.785-3.243Z" transform="translate(-108.274 -107.997)" fill="#fff"/>
      </g>
      <g id="Group_210" data-name="Group 210" transform="translate(64.198 111.734)">
        <path id="Path_121" data-name="Path 121" d="M139.422,108.943h13.195v1.1h-12.2v8.369h10.609v1.1H140.418V128.5h12.2v1.1H139.422Z" transform="translate(-139.267 -108.788)" fill="#fff"/>
        <path id="Path_122" data-name="Path 122" d="M152.694,129.674h-13.5V108.71h13.5v1.408H140.5v8.059H151.1v1.408H140.5v8.681h12.2Zm-13.195-.309h12.884v-.789h-12.2v-9.3H150.8v-.788h-10.61v-8.679h12.2v-.788H139.5Z" transform="translate(-139.189 -108.71)" fill="#fff"/>
      </g>
    </g>
    <g id="Group_224" data-name="Group 224" transform="translate(321.723 108.494)">
      <g id="Group_212" data-name="Group 212" transform="translate(-124.597 -57.494)">
        <path id="Path_123" data-name="Path 123" d="M-114.817-49.075a.409.409,0,0,0-.019-.154,1.965,1.965,0,0,0,.021-.353c-.014-1.265,0-2.53,0-3.8s.029-2.544,0-3.809c0-.009,0-.018,0-.027.008-.145-.048-.265-.136-.278a.126.126,0,0,0-.09.024.174.174,0,0,0-.076.078c-1.474,2.643-2.943,5.28-4.413,7.932-.036.065-.145.258-.146.259s-.013.021-.018.032a.308.308,0,0,0-.012-.038,1.814,1.814,0,0,0,.026-.376c-.014-1.265,0-2.53,0-3.8s.029-2.544,0-3.809c0-.009,0-.018,0-.027.008-.145-.048-.265-.137-.278a.126.126,0,0,0-.09.024.171.171,0,0,0-.075.078c-1.474,2.643-2.943,5.28-4.413,7.932l-.146.259c-.045.073-.069.14-.038.191a.144.144,0,0,0,.123.059c.039,0,.179,0,.267,0,1.351,0,2.7-.005,4.053.012q-2.134,3.827-4.259,7.657l-.146.259a.255.255,0,0,0-.051.15h0c.437,3.015,4.371,5.552,9.76,6.541l-.014-6.456a1.806,1.806,0,0,0,.005-.212c-.014-1.265.026-2.973.026-4.239s.029-2.544,0-3.809C-114.816-49.058-114.816-49.066-114.817-49.075Zm-4.865,7.668c-.014-1.265,0-2.53,0-3.8s.029-2.52,0-3.773a.173.173,0,0,0,.09.027c.039,0,.178,0,.267,0,1.344,0,2.689-.005,4.033.012q-2.123,3.809-4.239,7.621c-.036.066-.145.258-.146.259s-.016.027-.023.04h-.01A1.752,1.752,0,0,0-119.682-41.407Z" transform="translate(124.597 57.494)" fill="#e1184c"/>
      </g>
      <g id="Group_213" data-name="Group 213" transform="translate(-124.498 -16.46)">
        <path id="Path_124" data-name="Path 124" d="M-114.708,40.991h-1.338l1.337-2.843-9.658-.016,1.359,2.859h-1.359v8.961l3.272-4.7,1.6,3.006,1.478-2.8,3.312,4.492Z" transform="translate(124.367 -38.132)" fill="#e1184c"/>
      </g>
      <g id="Group_214" data-name="Group 214" transform="translate(-124.433 -35.705)">
        <path id="Path_125" data-name="Path 125" d="M-114.613-1.249h0c-.472-2.527-4.332-4.637-9.6-5.468l.015,17.51h9.632v-9.4l0-2.236Zm-4.777,9.476a3.669,3.669,0,0,1-3.669-3.669A3.669,3.669,0,0,1-119.391.888a3.669,3.669,0,0,1,3.669,3.669A3.669,3.669,0,0,1-119.391,8.227Z" transform="translate(124.216 6.718)" fill="#e1184c"/>
      </g>
    </g>
  </g>
</svg>
