<svg viewBox="0 0 256 256" xmlns="http://www.w3.org/2000/svg"><path d="m244.24 134.65 8.76-20.12h-18.51v-10.82h-11.49a10.83 10.83 0 0 1 -1.41-3.21c-1.44-6.2 1.89-7.33-.43-13.51s-6.1-4.35-9.27-9.85c-3-5.62-.07-7.57-3.91-12.94s-7-2.62-11.51-7.11c-4.35-4.65-2-7.3-7.13-11.49s-7.45-.71-12.95-3.89c-5.4-3.37-3.85-6.52-9.86-9.25s-7.38 1.24-13.52-.41c-6.09-1.86-5.4-5.31-11.92-6.38s-6.81 3.1-13.16 3.1c-6.36-.22-6.59-3.73-13.16-3.08s-5.78 4.76-11.92 6.4c-6.2 1.43-7.33-1.89-13.51.43s-4.35 6.1-9.85 9.27c-5.62 3-7.57.07-12.94 3.91s-2.62 7-7.11 11.51c-4.66 4.34-7.3 2-11.49 7.13s-.71 7.45-3.89 12.95c-3.35 5.23-6.5 3.71-9.23 9.71s1.24 7.39-.41 13.53a13 13 0 0 1 -1.42 3.18h-11.49v10.82h-18.51l8.76 20.12-8.65 22.92h31.14a10.76 10.76 0 0 0 .58 6.59c2.32 6.18 6.09 4.35 9.27 9.85 3 5.62.07 7.57 3.91 12.94s7 2.62 11.51 7.11c4.34 4.65 2 7.29 7.12 11.48s7.46.72 13 3.9c5.4 3.37 3.84 6.52 9.85 9.25s7.39-1.24 13.52.4c6.09 1.86 5.4 5.3 11.91 6.38s6.82-3.11 13.17-3.11c6.36.22 6.59 3.73 13.16 3.08s5.78-4.76 11.91-6.41c6.2-1.44 7.33 1.89 13.51-.43s4.34-6.1 9.85-9.27c5.62-3 7.57-.07 12.94-3.91s2.62-7 7.11-11.51c4.65-4.34 7.29-2 11.48-7.13s.72-7.45 3.9-13c3.37-5.4 6.52-3.85 9.25-9.86a9 9 0 0 0 .63-6.59h31.09zm-116.24-98.94a90 90 0 0 1 87.15 68h-4.1a85.88 85.88 0 0 0 -166.11 0h-4.1a90 90 0 0 1 87.16-68zm41.78 42.22a1.59 1.59 0 1 1 2.22-2.24l7.09 7.11a1.59 1.59 0 1 1 -2.22 2.2zm5.79 10.67-5.25 5.27a1.59 1.59 0 0 1 -2.25 0l-7.07-7.12a1.59 1.59 0 0 1 0-2.25l5.25-5.26a1.59 1.59 0 0 1 2.25 0l7.09 7.12a1.58 1.58 0 0 1 -.02 2.24zm-47.57-39.91a77 77 0 0 0 -73.7 55h-4.13a80.83 80.83 0 0 1 155.65 0h-4.13a77 77 0 0 0 -73.69-55zm4.84 19.52-1.94 1.94-2.9-2.9-2.9 2.9-1.94-1.94 2.9-2.9-2.9-2.9 1.94-1.94 2.9 2.9 2.9-2.9 1.94 1.94-2.9 2.9zm0 11.6-1.94 1.94-2.9-2.9-2.9 2.9-1.94-1.94 2.9-2.9-2.9-2.9 1.94-1.94 2.9 2.93 2.9-2.9 1.94 1.9-2.9 2.9zm0 11.6-1.94 1.94-2.9-2.9-2.9 2.9-1.94-1.94 2.9-2.9-2.9-2.9 1.94-1.94 2.9 2.9 2.9-2.9 1.94 1.94-2.9 2.9zm-125.9 63.51 7.68-20.34-7.62-17.4h14.51v29.52l9.75 8.22zm19.52-7.51h6.54a11 11 0 0 1 1.41 3.23 12.41 12.41 0 0 1 .34 3.74zm101.54 68a90 90 0 0 1 -87.16-68h4.1a85.88 85.88 0 0 0 166.12 0h4.1a90 90 0 0 1 -87.16 68.02zm0-13a77 77 0 0 0 73.7-55h4.13a80.83 80.83 0 0 1 -155.66 0h4.13a77 77 0 0 0 73.7 55.04zm-49.8-26 8.54-17.41 8.26 9.27zm56.92-15.42v4.46h3.94v23.65h-7.19v-10.04h-7.74v10.12h-7.2v-23.65h3.94v-4.46h3.55v-4.8h7.16v4.8zm80.65-16.3h-62.77l21.52 21.46a5.3 5.3 0 0 1 -3.74 9.05 5.26 5.26 0 0 1 -3.74-1.54l-29-29h-18.64l-21.29 21.45a1.59 1.59 0 0 1 -2.25-2.25l19-19.09h-2.56l-17.74 17.78a1.6 1.6 0 0 1 -1.13.47 1.59 1.59 0 0 1 -1.12-2.71l15.5-15.54h-2.6l-14.21 14.23a1.59 1.59 0 0 1 -2.25-2.25l12-12h-76.59v-38.39h75.32l-2.72-2.72a5.28 5.28 0 0 1 -.76-6.43l-.53-.52a13.49 13.49 0 0 1 -8.68 3.2 13.62 13.62 0 0 1 -13.68-13.62l11.43 5.73 5.83-4.28-1.2-7.37-11-4.66a13.58 13.58 0 0 1 19.11 19.11l.54.54a5.29 5.29 0 0 1 6.42.8l10.24 10.22h24.52l17.3-17.31a1.59 1.59 0 0 1 2.25 2.25l-15 15.06h2.6l13.74-13.77a1.59 1.59 0 0 1 2.25 2.25l-11.5 11.52h2.6l10.2-10.21a1.59 1.59 0 1 1 2.25 2.24l-8 8h74.14v38.41h-16.06zm5.43 9.67a10.9 10.9 0 0 1 .37-3.8 13.38 13.38 0 0 1 1.45-3.24h6.49zm13.29-7.74v-29.44h14.51l-7.58 17.4 7.68 20.34h-24.36z"/><path d="m169.8 170.92a1.32 1.32 0 1 0 1.87-1.87l-7.54-7.53a1.32 1.32 0 1 0 -1.87 1.87z"/><path d="m22.89 105.1h210.21v40.93h-210.21z" fill="#ff0010"/><path d="m231.84 106.36v38.41h-207.68v-38.41zm2.53-2.53h-212.74v43.47h212.74z" fill="#fff"/><path d="m13.05 135.17-7.87-19.21 17.6-.44v30.6l11.84 10.1-29.51.59z" fill="#ff0010"/><path d="m21.51 116.81v29.89l9.75 8.3-24.32.49 7.46-20.36-7.4-17.95 14.47-.37m2.53-2.59-2.59.06-14.41.37-3.67.1 1.39 3.39 7 17.06-7.16 19.44-1.27 3.47 3.71-.11 24.32-.49 6.66-.14-5.07-4.32-8.91-7.51z" fill="#fff"/><path d="m221.28 156.19 11.94-10.07v-30.2h17.67l-8.14 18.7 8.14 21.57z" fill="#ff0010"/><g fill="#fff"><path d="m249 117.18-7.58 17.4 7.68 20.34h-24.36l9.75-8.22v-29.52zm3.86-2.53h-20.86v30.88l-8.89 7.47-5.3 4.46h34.91l-1.29-3.46-7.32-19.38 7.17-16.46 1.54-3.54z"/><path d="m67.28 117.09a20.89 20.89 0 0 0 -4.4-.28h-5.94v18.34h3.7v-6.92h2.42a21.55 21.55 0 0 0 3.83-.26 5.31 5.31 0 0 0 1.92-.87 5 5 0 0 0 1.56-1.81 6 6 0 0 0 .61-2.84 5.68 5.68 0 0 0 -1.06-3.57 4.79 4.79 0 0 0 -2.64-1.79zm-.53 6.84a2.38 2.38 0 0 1 -1.16.9 9.54 9.54 0 0 1 -2.92.29h-2v-5.2h1.79a18.49 18.49 0 0 1 2.66.12 2.58 2.58 0 0 1 1.49.81 2.4 2.4 0 0 1 .59 1.65 2.48 2.48 0 0 1 -.45 1.43z"/><path d="m84.36 117.09a20.89 20.89 0 0 0 -4.4-.28h-5.96v18.34h3.7v-6.92h2.42a21.76 21.76 0 0 0 3.88-.23 5.31 5.31 0 0 0 1.92-.87 4.93 4.93 0 0 0 1.55-1.81 6 6 0 0 0 .62-2.84 5.68 5.68 0 0 0 -1.09-3.6 4.79 4.79 0 0 0 -2.64-1.79zm-.53 6.84a2.4 2.4 0 0 1 -1.15.9 9.67 9.67 0 0 1 -2.93.29h-2v-5.2h1.79a18.66 18.66 0 0 1 2.67.12 2.62 2.62 0 0 1 1.49.81 2.39 2.39 0 0 1 .58 1.65 2.48 2.48 0 0 1 -.45 1.43z"/><path d="m102.32 125a18.65 18.65 0 0 0 -4-1.32 9.71 9.71 0 0 1 -3.4-1.22 1.4 1.4 0 0 1 -.55-1.11 1.31 1.31 0 0 1 .59-1.14 4.22 4.22 0 0 1 2.52-.67 3.77 3.77 0 0 1 2.35.62 3.18 3.18 0 0 1 1 2l3.7-.17a5.37 5.37 0 0 0 -1.83-4 7.81 7.81 0 0 0 -5.2-1.51 9.1 9.1 0 0 0 -3.61.64 5 5 0 0 0 -2.27 1.88 4.83 4.83 0 0 0 .9 6.32 10.11 10.11 0 0 0 4.17 1.81c1.55.38 2.53.65 3 .8a3 3 0 0 1 1.33.79 1.72 1.72 0 0 1 .38 1.11 2.25 2.25 0 0 1 -.91 1.77 4.13 4.13 0 0 1 -2.69.76 4 4 0 0 1 -2.68-.86 4.29 4.29 0 0 1 -1.32-2.66l-3.6.35a7 7 0 0 0 2.22 4.68 7.89 7.89 0 0 0 5.34 1.61 10.33 10.33 0 0 0 4-.67 5.27 5.27 0 0 0 2.48-2 5.79 5.79 0 0 0 .14-5.87 5.21 5.21 0 0 0 -2.06-1.94z"/><path d="m106.87 119.92h5.44v15.23h3.71v-15.23h5.42v-3.11h-14.57z"/><path d="m127.53 127.07h9.21v-3.09h-9.21v-4.06h9.89v-3.11h-13.59v18.34h13.95v-3.09h-10.25z"/><path d="m153.06 128.59a8.37 8.37 0 0 0 -2-1.53 5.85 5.85 0 0 0 3.63-1.7 4.94 4.94 0 0 0 1.21-3.41 5.34 5.34 0 0 0 -.8-2.89 4.23 4.23 0 0 0 -2.13-1.75 13.28 13.28 0 0 0 -4.27-.5h-7.79v18.34h3.7v-7.66h.75a6 6 0 0 1 1.86.21 2.87 2.87 0 0 1 1.11.76 25.53 25.53 0 0 1 2 2.7l2.68 4h4.43l-2.24-3.58a21.38 21.38 0 0 0 -2.14-2.99zm-5.69-4h-2.74v-4.65h2.89q2.25 0 2.7.06a2.26 2.26 0 0 1 1.39.72 2.18 2.18 0 0 1 .5 1.49 2.41 2.41 0 0 1 -.38 1.38 2 2 0 0 1 -1 .77 14 14 0 0 1 -3.36.21z"/><path d="m172.41 118.85a6.13 6.13 0 0 0 -2.76-1.69 13.34 13.34 0 0 0 -3.49-.35h-6.76v18.34h7a11.16 11.16 0 0 0 3.28-.39 6.45 6.45 0 0 0 2.6-1.47 8.05 8.05 0 0 0 2-3.23 12 12 0 0 0 .56-3.9 13.56 13.56 0 0 0 -.6-4.34 8 8 0 0 0 -1.83-2.97zm-1.85 10.5a3.86 3.86 0 0 1 -1 1.77 3.35 3.35 0 0 1 -1.49.76 9.86 9.86 0 0 1 -2.24.18h-2.73v-12.14h1.66a16.65 16.65 0 0 1 3 .17 3.56 3.56 0 0 1 1.71.86 4.23 4.23 0 0 1 1.05 1.78 10.94 10.94 0 0 1 .38 3.26 11.94 11.94 0 0 1 -.34 3.36z"/><path d="m183.18 116.81-7.18 18.34h4l1.51-4.17h7.33l1.6 4.17h4l-7.34-18.34zm-.56 11.08 2.47-6.8 2.53 6.8z"/><path d="m205.22 129.32-3.33-12.51h-5.54v18.34h3.44v-14.44l3.62 14.44h3.57l3.64-14.44v14.44h3.44v-18.34h-5.56z"/><path d="m43.72 116.81-7.14 18.34h3.93l1.49-4.15h7.33l1.6 4.17h4l-7.34-18.34zm-.56 11.08 2.48-6.8 2.52 6.8z"/></g></svg>