<svg id="Layer_1" data-name="Layer 1" xmlns="http://www.w3.org/2000/svg" viewBox="0 0 256 256"><path d="M244.24,134.65,253,114.53H234.49V103.71H223a10.83,10.83,0,0,1-1.41-3.21h0c-1.44-6.2,1.89-7.33-.43-13.51s-6.1-4.35-9.27-9.85h0c-3-5.62-.07-7.57-3.91-12.94s-7-2.62-11.51-7.11l0,0c-4.35-4.65-2-7.3-7.13-11.49s-7.45-.71-12.95-3.89v0c-5.4-3.37-3.85-6.52-9.86-9.25s-7.38,1.24-13.52-.41v0c-6.09-1.86-5.4-5.31-11.92-6.38s-6.81,3.1-13.16,3.1v0c-6.36-.22-6.59-3.73-13.16-3.08s-5.78,4.76-11.92,6.4v0c-6.2,1.43-7.33-1.89-13.51.43s-4.35,6.1-9.85,9.27v0c-5.62,3-7.57.07-12.94,3.91s-2.62,7-7.11,11.51l0,0c-4.66,4.34-7.3,2-11.49,7.13s-.71,7.45-3.89,12.95h0C40.71,82.52,37.56,81,34.83,87s1.24,7.39-.41,13.53h0A13,13,0,0,1,33,103.71H21.51v10.82H3l8.76,20.12L3.11,157.57H34.25a10.76,10.76,0,0,0,.58,6.59c2.32,6.18,6.09,4.35,9.27,9.85h0c3,5.62.07,7.57,3.91,12.94s7,2.62,11.51,7.11l0,0c4.34,4.65,2,7.29,7.12,11.48s7.46.72,13,3.9v0c5.4,3.37,3.84,6.52,9.85,9.25s7.39-1.24,13.52.4v0c6.09,1.86,5.4,5.3,11.91,6.38s6.82-3.11,13.17-3.11v0c6.36.22,6.59,3.73,13.16,3.08s5.78-4.76,11.91-6.41v0c6.2-1.44,7.33,1.89,13.51-.43s4.34-6.1,9.85-9.27v0c5.62-3,7.57-.07,12.94-3.91s2.62-7,7.11-11.51l0,0c4.65-4.34,7.29-2,11.48-7.13s.72-7.45,3.9-13h0c3.37-5.4,6.52-3.85,9.25-9.86a9,9,0,0,0,.63-6.59h31.09ZM128,35.71a90,90,0,0,1,87.15,68h-4.1a85.88,85.88,0,0,0-166.11,0h-4.1A90,90,0,0,1,128,35.71Zm41.78,42.22A1.59,1.59,0,1,1,172,75.69l7.09,7.11A1.59,1.59,0,1,1,176.87,85Zm5.79,10.67-5.25,5.27a1.59,1.59,0,0,1-2.25,0L161,86.75a1.59,1.59,0,0,1,0-2.25l5.25-5.26a1.59,1.59,0,0,1,2.25,0l7.09,7.12A1.58,1.58,0,0,1,175.57,88.6ZM128,48.69a77,77,0,0,0-73.7,55H50.17a80.83,80.83,0,0,1,155.65,0h-4.13A77,77,0,0,0,128,48.69Zm4.84,19.52-1.94,1.94-2.9-2.9-2.9,2.9-1.94-1.94,2.9-2.9-2.9-2.9,1.94-1.94,2.9,2.9,2.9-2.9,1.94,1.94-2.9,2.9Zm0,11.6-1.94,1.94-2.9-2.9-2.9,2.9-1.94-1.94,2.9-2.9-2.9-2.9,1.94-1.94L128,75l2.9-2.9L132.84,74l-2.9,2.9Zm0,11.6-1.94,1.94-2.9-2.9-2.9,2.9-1.94-1.94,2.9-2.9-2.9-2.9,1.94-1.94,2.9,2.9,2.9-2.9,1.94,1.94-2.9,2.9ZM6.94,154.92l7.68-20.34L7,117.18H21.51V146.7l9.75,8.22Zm19.52-7.51H33a11,11,0,0,1,1.41,3.23h0a12.41,12.41,0,0,1,.34,3.74Zm101.54,68a90,90,0,0,1-87.16-68h4.1a85.88,85.88,0,0,0,166.12,0h4.1A90,90,0,0,1,128,215.43Zm0-13a77,77,0,0,0,73.7-55h4.13a80.83,80.83,0,0,1-155.66,0H54.3A77,77,0,0,0,128,202.45Zm-49.8-26L86.74,159,95,168.27Zm56.92-15.42v4.46h3.94v23.65h-7.19V179.06h-7.74v10.12h-7.2V165.53h3.94v-4.46h3.55v-4.8h7.16v4.8Zm80.65-16.3H153l21.52,21.46a5.3,5.3,0,0,1-3.74,9.05,5.26,5.26,0,0,1-3.74-1.54l-29-29H119.4L98.11,166.11a1.59,1.59,0,0,1-2.25-2.25l19-19.09H112.3L94.56,162.55a1.6,1.6,0,0,1-1.13.47,1.59,1.59,0,0,1-1.12-2.71l15.5-15.54h-2.6L91,159a1.59,1.59,0,0,1-2.25-2.25l12-12H24.16V106.36H99.48l-2.72-2.72A5.28,5.28,0,0,1,96,97.21l-.53-.52a13.49,13.49,0,0,1-8.68,3.2A13.62,13.62,0,0,1,73.11,86.27L84.54,92l5.83-4.28-1.2-7.37-11-4.66A13.58,13.58,0,0,1,97.28,94.8l.54.54a5.29,5.29,0,0,1,6.42.8l10.24,10.22H139L156.3,89.05a1.59,1.59,0,0,1,2.25,2.25l-15,15.06h2.6l13.74-13.77a1.59,1.59,0,0,1,2.25,2.25l-11.5,11.52h2.6l10.2-10.21a1.59,1.59,0,1,1,2.25,2.24l-8,8h74.14v38.41H215.77Zm5.43,9.67a10.9,10.9,0,0,1,.37-3.8h0a13.38,13.38,0,0,1,1.45-3.24h6.49Zm13.29-7.74V117.18H249l-7.58,17.4,7.68,20.34H224.74Z"/><path d="M169.8,170.92a1.32,1.32,0,1,0,1.87-1.87l-7.54-7.53a1.32,1.32,0,1,0-1.87,1.87Z"/><rect x="22.89" y="105.1" width="210.21" height="40.93" fill="#ff0010"/><path d="M231.84,106.36v38.41H24.16V106.36H231.84m2.53-2.53H21.63V147.3H234.37V103.83Z" fill="#fff"/><polygon points="13.05 135.17 5.18 115.96 22.78 115.52 22.78 146.12 34.62 156.22 5.11 156.81 13.05 135.17" fill="#ff0010"/><path d="M21.51,116.81V146.7L31.26,155l-24.32.49,7.46-20.36L7,117.18l14.47-.37M24,114.22l-2.59.06L7,114.65l-3.67.1,1.39,3.39,7,17.06L4.56,154.64l-1.27,3.47L7,158l24.32-.49,6.66-.14-5.07-4.32L24,145.54V114.22Z" fill="#fff"/><polygon points="221.28 156.19 233.22 146.12 233.22 115.92 250.89 115.92 242.75 134.62 250.89 156.19 221.28 156.19" fill="#ff0010"/><path d="M249,117.18l-7.58,17.4,7.68,20.34H224.74l9.75-8.22V117.18H249m3.86-2.53H232v30.88L223.11,153l-5.3,4.46h34.91L251.43,154l-7.32-19.38,7.17-16.46,1.54-3.54Z" fill="#fff"/><path d="M67.28,117.09a20.89,20.89,0,0,0-4.4-.28H56.94v18.34h3.7v-6.92h2.42a21.55,21.55,0,0,0,3.83-.26,5.31,5.31,0,0,0,1.92-.87,5,5,0,0,0,1.56-1.81,6,6,0,0,0,.61-2.84,5.68,5.68,0,0,0-1.06-3.57A4.79,4.79,0,0,0,67.28,117.09Zm-.53,6.84a2.38,2.38,0,0,1-1.16.9,9.54,9.54,0,0,1-2.92.29h-2v-5.2h1.79a18.49,18.49,0,0,1,2.66.12,2.58,2.58,0,0,1,1.49.81,2.4,2.4,0,0,1,.59,1.65A2.48,2.48,0,0,1,66.75,123.93Z" fill="#fff"/><path d="M84.36,117.09a20.89,20.89,0,0,0-4.4-.28H74v18.34h3.7v-6.92h2.42A21.76,21.76,0,0,0,84,128a5.31,5.31,0,0,0,1.92-.87,4.93,4.93,0,0,0,1.55-1.81,6,6,0,0,0,.62-2.84A5.68,5.68,0,0,0,87,118.88,4.79,4.79,0,0,0,84.36,117.09Zm-.53,6.84a2.4,2.4,0,0,1-1.15.9,9.67,9.67,0,0,1-2.93.29h-2v-5.2h1.79a18.66,18.66,0,0,1,2.67.12,2.62,2.62,0,0,1,1.49.81,2.39,2.39,0,0,1,.58,1.65A2.48,2.48,0,0,1,83.83,123.93Z" fill="#fff"/><path d="M102.32,125a18.65,18.65,0,0,0-4-1.32,9.71,9.71,0,0,1-3.4-1.22,1.4,1.4,0,0,1-.55-1.11,1.31,1.31,0,0,1,.59-1.14,4.22,4.22,0,0,1,2.52-.67,3.77,3.77,0,0,1,2.35.62,3.18,3.18,0,0,1,1,2l3.7-.17a5.37,5.37,0,0,0-1.83-4,7.81,7.81,0,0,0-5.2-1.51,9.1,9.1,0,0,0-3.61.64A5,5,0,0,0,91.62,119a4.83,4.83,0,0,0,.9,6.32,10.11,10.11,0,0,0,4.17,1.81c1.55.38,2.53.65,3,.8a3,3,0,0,1,1.33.79,1.72,1.72,0,0,1,.38,1.11,2.25,2.25,0,0,1-.91,1.77,4.13,4.13,0,0,1-2.69.76,4,4,0,0,1-2.68-.86,4.29,4.29,0,0,1-1.32-2.66l-3.6.35a7,7,0,0,0,2.22,4.68,7.89,7.89,0,0,0,5.34,1.61,10.33,10.33,0,0,0,4-.67,5.27,5.27,0,0,0,2.48-2,5.79,5.79,0,0,0,.14-5.87A5.21,5.21,0,0,0,102.32,125Z" fill="#fff"/><polygon points="106.87 119.92 112.31 119.92 112.31 135.15 116.02 135.15 116.02 119.92 121.44 119.92 121.44 116.81 106.87 116.81 106.87 119.92" fill="#fff"/><polygon points="127.53 127.07 136.74 127.07 136.74 123.98 127.53 123.98 127.53 119.92 137.42 119.92 137.42 116.81 123.83 116.81 123.83 135.15 137.78 135.15 137.78 132.06 127.53 132.06 127.53 127.07" fill="#fff"/><path d="M153.06,128.59a8.37,8.37,0,0,0-2-1.53,5.85,5.85,0,0,0,3.63-1.7,4.94,4.94,0,0,0,1.21-3.41,5.34,5.34,0,0,0-.8-2.89,4.23,4.23,0,0,0-2.13-1.75,13.28,13.28,0,0,0-4.27-.5h-7.79v18.34h3.7v-7.66h.75a6,6,0,0,1,1.86.21,2.87,2.87,0,0,1,1.11.76,25.53,25.53,0,0,1,2,2.7l2.68,4h4.43l-2.24-3.58A21.38,21.38,0,0,0,153.06,128.59Zm-5.69-4h-2.74v-4.65h2.89q2.25,0,2.7.06a2.26,2.26,0,0,1,1.39.72,2.18,2.18,0,0,1,.5,1.49,2.41,2.41,0,0,1-.38,1.38,2,2,0,0,1-1,.77A14,14,0,0,1,147.37,124.57Z" fill="#fff"/><path d="M172.41,118.85a6.13,6.13,0,0,0-2.76-1.69,13.34,13.34,0,0,0-3.49-.35H159.4v18.34h7a11.16,11.16,0,0,0,3.28-.39,6.45,6.45,0,0,0,2.6-1.47,8.05,8.05,0,0,0,2-3.23,12,12,0,0,0,.56-3.9,13.56,13.56,0,0,0-.6-4.34A8,8,0,0,0,172.41,118.85Zm-1.85,10.5a3.86,3.86,0,0,1-1,1.77,3.35,3.35,0,0,1-1.49.76,9.86,9.86,0,0,1-2.24.18H163.1V119.92h1.66a16.65,16.65,0,0,1,3,.17,3.56,3.56,0,0,1,1.71.86,4.23,4.23,0,0,1,1.05,1.78,10.94,10.94,0,0,1,.38,3.26A11.94,11.94,0,0,1,170.56,129.35Z" fill="#fff"/><path d="M183.18,116.81,176,135.15H180l1.51-4.17h7.33l1.6,4.17h4l-7.34-18.34Zm-.56,11.08,2.47-6.8,2.53,6.8Z" fill="#fff"/><polygon points="205.22 129.32 201.89 116.81 196.35 116.81 196.35 135.15 199.79 135.15 199.79 120.71 203.41 135.15 206.98 135.15 210.62 120.71 210.62 135.15 214.06 135.15 214.06 116.81 208.5 116.81 205.22 129.32" fill="#fff"/><path d="M43.72,116.81l-7.14,18.34h3.93L42,131h7.33l1.6,4.17h4l-7.34-18.34Zm-.56,11.08,2.48-6.8,2.52,6.8Z" fill="#fff"/></svg>